%TF.GenerationSoftware,KiCad,Pcbnew,8.0.8*%
%TF.CreationDate,2025-06-30T12:02:42+05:30*%
%TF.ProjectId,Serial Basic CH340C,53657269-616c-4204-9261-736963204348,rev?*%
%TF.SameCoordinates,Original*%
%TF.FileFunction,Legend,Top*%
%TF.FilePolarity,Positive*%
%FSLAX46Y46*%
G04 Gerber Fmt 4.6, Leading zero omitted, Abs format (unit mm)*
G04 Created by KiCad (PCBNEW 8.0.8) date 2025-06-30 12:02:42*
%MOMM*%
%LPD*%
G01*
G04 APERTURE LIST*
%ADD10C,0.150000*%
%ADD11C,0.120000*%
%ADD12C,0.100000*%
%TA.AperFunction,Profile*%
%ADD13C,0.050000*%
%TD*%
G04 APERTURE END LIST*
D10*
X124354819Y-53761904D02*
X125164342Y-53761904D01*
X125164342Y-53761904D02*
X125259580Y-53714285D01*
X125259580Y-53714285D02*
X125307200Y-53666666D01*
X125307200Y-53666666D02*
X125354819Y-53571428D01*
X125354819Y-53571428D02*
X125354819Y-53380952D01*
X125354819Y-53380952D02*
X125307200Y-53285714D01*
X125307200Y-53285714D02*
X125259580Y-53238095D01*
X125259580Y-53238095D02*
X125164342Y-53190476D01*
X125164342Y-53190476D02*
X124354819Y-53190476D01*
X124450057Y-52761904D02*
X124402438Y-52714285D01*
X124402438Y-52714285D02*
X124354819Y-52619047D01*
X124354819Y-52619047D02*
X124354819Y-52380952D01*
X124354819Y-52380952D02*
X124402438Y-52285714D01*
X124402438Y-52285714D02*
X124450057Y-52238095D01*
X124450057Y-52238095D02*
X124545295Y-52190476D01*
X124545295Y-52190476D02*
X124640533Y-52190476D01*
X124640533Y-52190476D02*
X124783390Y-52238095D01*
X124783390Y-52238095D02*
X125354819Y-52809523D01*
X125354819Y-52809523D02*
X125354819Y-52190476D01*
X120633333Y-69849580D02*
X120585714Y-69897200D01*
X120585714Y-69897200D02*
X120442857Y-69944819D01*
X120442857Y-69944819D02*
X120347619Y-69944819D01*
X120347619Y-69944819D02*
X120204762Y-69897200D01*
X120204762Y-69897200D02*
X120109524Y-69801961D01*
X120109524Y-69801961D02*
X120061905Y-69706723D01*
X120061905Y-69706723D02*
X120014286Y-69516247D01*
X120014286Y-69516247D02*
X120014286Y-69373390D01*
X120014286Y-69373390D02*
X120061905Y-69182914D01*
X120061905Y-69182914D02*
X120109524Y-69087676D01*
X120109524Y-69087676D02*
X120204762Y-68992438D01*
X120204762Y-68992438D02*
X120347619Y-68944819D01*
X120347619Y-68944819D02*
X120442857Y-68944819D01*
X120442857Y-68944819D02*
X120585714Y-68992438D01*
X120585714Y-68992438D02*
X120633333Y-69040057D01*
X121585714Y-69944819D02*
X121014286Y-69944819D01*
X121300000Y-69944819D02*
X121300000Y-68944819D01*
X121300000Y-68944819D02*
X121204762Y-69087676D01*
X121204762Y-69087676D02*
X121109524Y-69182914D01*
X121109524Y-69182914D02*
X121014286Y-69230533D01*
X105638095Y-53654819D02*
X105638095Y-52654819D01*
X105638095Y-53131009D02*
X106209523Y-53131009D01*
X106209523Y-53654819D02*
X106209523Y-52654819D01*
X107209523Y-53654819D02*
X106638095Y-53654819D01*
X106923809Y-53654819D02*
X106923809Y-52654819D01*
X106923809Y-52654819D02*
X106828571Y-52797676D01*
X106828571Y-52797676D02*
X106733333Y-52892914D01*
X106733333Y-52892914D02*
X106638095Y-52940533D01*
X111875180Y-61911905D02*
X112875180Y-61911905D01*
X112875180Y-61911905D02*
X112875180Y-62292857D01*
X112875180Y-62292857D02*
X112827561Y-62388095D01*
X112827561Y-62388095D02*
X112779942Y-62435714D01*
X112779942Y-62435714D02*
X112684704Y-62483333D01*
X112684704Y-62483333D02*
X112541847Y-62483333D01*
X112541847Y-62483333D02*
X112446609Y-62435714D01*
X112446609Y-62435714D02*
X112398990Y-62388095D01*
X112398990Y-62388095D02*
X112351371Y-62292857D01*
X112351371Y-62292857D02*
X112351371Y-61911905D01*
X112779942Y-62864286D02*
X112827561Y-62911905D01*
X112827561Y-62911905D02*
X112875180Y-63007143D01*
X112875180Y-63007143D02*
X112875180Y-63245238D01*
X112875180Y-63245238D02*
X112827561Y-63340476D01*
X112827561Y-63340476D02*
X112779942Y-63388095D01*
X112779942Y-63388095D02*
X112684704Y-63435714D01*
X112684704Y-63435714D02*
X112589466Y-63435714D01*
X112589466Y-63435714D02*
X112446609Y-63388095D01*
X112446609Y-63388095D02*
X111875180Y-62816667D01*
X111875180Y-62816667D02*
X111875180Y-63435714D01*
X132238095Y-70254819D02*
X132238095Y-69254819D01*
X132238095Y-69731009D02*
X132809523Y-69731009D01*
X132809523Y-70254819D02*
X132809523Y-69254819D01*
X133714285Y-69588152D02*
X133714285Y-70254819D01*
X133476190Y-69207200D02*
X133238095Y-69921485D01*
X133238095Y-69921485D02*
X133857142Y-69921485D01*
X119084819Y-68391666D02*
X118608628Y-68724999D01*
X119084819Y-68963094D02*
X118084819Y-68963094D01*
X118084819Y-68963094D02*
X118084819Y-68582142D01*
X118084819Y-68582142D02*
X118132438Y-68486904D01*
X118132438Y-68486904D02*
X118180057Y-68439285D01*
X118180057Y-68439285D02*
X118275295Y-68391666D01*
X118275295Y-68391666D02*
X118418152Y-68391666D01*
X118418152Y-68391666D02*
X118513390Y-68439285D01*
X118513390Y-68439285D02*
X118561009Y-68486904D01*
X118561009Y-68486904D02*
X118608628Y-68582142D01*
X118608628Y-68582142D02*
X118608628Y-68963094D01*
X118180057Y-68010713D02*
X118132438Y-67963094D01*
X118132438Y-67963094D02*
X118084819Y-67867856D01*
X118084819Y-67867856D02*
X118084819Y-67629761D01*
X118084819Y-67629761D02*
X118132438Y-67534523D01*
X118132438Y-67534523D02*
X118180057Y-67486904D01*
X118180057Y-67486904D02*
X118275295Y-67439285D01*
X118275295Y-67439285D02*
X118370533Y-67439285D01*
X118370533Y-67439285D02*
X118513390Y-67486904D01*
X118513390Y-67486904D02*
X119084819Y-68058332D01*
X119084819Y-68058332D02*
X119084819Y-67439285D01*
X119033333Y-58024819D02*
X118700000Y-57548628D01*
X118461905Y-58024819D02*
X118461905Y-57024819D01*
X118461905Y-57024819D02*
X118842857Y-57024819D01*
X118842857Y-57024819D02*
X118938095Y-57072438D01*
X118938095Y-57072438D02*
X118985714Y-57120057D01*
X118985714Y-57120057D02*
X119033333Y-57215295D01*
X119033333Y-57215295D02*
X119033333Y-57358152D01*
X119033333Y-57358152D02*
X118985714Y-57453390D01*
X118985714Y-57453390D02*
X118938095Y-57501009D01*
X118938095Y-57501009D02*
X118842857Y-57548628D01*
X118842857Y-57548628D02*
X118461905Y-57548628D01*
X119366667Y-57024819D02*
X119985714Y-57024819D01*
X119985714Y-57024819D02*
X119652381Y-57405771D01*
X119652381Y-57405771D02*
X119795238Y-57405771D01*
X119795238Y-57405771D02*
X119890476Y-57453390D01*
X119890476Y-57453390D02*
X119938095Y-57501009D01*
X119938095Y-57501009D02*
X119985714Y-57596247D01*
X119985714Y-57596247D02*
X119985714Y-57834342D01*
X119985714Y-57834342D02*
X119938095Y-57929580D01*
X119938095Y-57929580D02*
X119890476Y-57977200D01*
X119890476Y-57977200D02*
X119795238Y-58024819D01*
X119795238Y-58024819D02*
X119509524Y-58024819D01*
X119509524Y-58024819D02*
X119414286Y-57977200D01*
X119414286Y-57977200D02*
X119366667Y-57929580D01*
X124341905Y-58404819D02*
X124341905Y-57404819D01*
X124341905Y-57404819D02*
X124580000Y-57404819D01*
X124580000Y-57404819D02*
X124722857Y-57452438D01*
X124722857Y-57452438D02*
X124818095Y-57547676D01*
X124818095Y-57547676D02*
X124865714Y-57642914D01*
X124865714Y-57642914D02*
X124913333Y-57833390D01*
X124913333Y-57833390D02*
X124913333Y-57976247D01*
X124913333Y-57976247D02*
X124865714Y-58166723D01*
X124865714Y-58166723D02*
X124818095Y-58261961D01*
X124818095Y-58261961D02*
X124722857Y-58357200D01*
X124722857Y-58357200D02*
X124580000Y-58404819D01*
X124580000Y-58404819D02*
X124341905Y-58404819D01*
X125294286Y-57500057D02*
X125341905Y-57452438D01*
X125341905Y-57452438D02*
X125437143Y-57404819D01*
X125437143Y-57404819D02*
X125675238Y-57404819D01*
X125675238Y-57404819D02*
X125770476Y-57452438D01*
X125770476Y-57452438D02*
X125818095Y-57500057D01*
X125818095Y-57500057D02*
X125865714Y-57595295D01*
X125865714Y-57595295D02*
X125865714Y-57690533D01*
X125865714Y-57690533D02*
X125818095Y-57833390D01*
X125818095Y-57833390D02*
X125246667Y-58404819D01*
X125246667Y-58404819D02*
X125865714Y-58404819D01*
X125249580Y-62026666D02*
X125297200Y-62074285D01*
X125297200Y-62074285D02*
X125344819Y-62217142D01*
X125344819Y-62217142D02*
X125344819Y-62312380D01*
X125344819Y-62312380D02*
X125297200Y-62455237D01*
X125297200Y-62455237D02*
X125201961Y-62550475D01*
X125201961Y-62550475D02*
X125106723Y-62598094D01*
X125106723Y-62598094D02*
X124916247Y-62645713D01*
X124916247Y-62645713D02*
X124773390Y-62645713D01*
X124773390Y-62645713D02*
X124582914Y-62598094D01*
X124582914Y-62598094D02*
X124487676Y-62550475D01*
X124487676Y-62550475D02*
X124392438Y-62455237D01*
X124392438Y-62455237D02*
X124344819Y-62312380D01*
X124344819Y-62312380D02*
X124344819Y-62217142D01*
X124344819Y-62217142D02*
X124392438Y-62074285D01*
X124392438Y-62074285D02*
X124440057Y-62026666D01*
X124440057Y-61645713D02*
X124392438Y-61598094D01*
X124392438Y-61598094D02*
X124344819Y-61502856D01*
X124344819Y-61502856D02*
X124344819Y-61264761D01*
X124344819Y-61264761D02*
X124392438Y-61169523D01*
X124392438Y-61169523D02*
X124440057Y-61121904D01*
X124440057Y-61121904D02*
X124535295Y-61074285D01*
X124535295Y-61074285D02*
X124630533Y-61074285D01*
X124630533Y-61074285D02*
X124773390Y-61121904D01*
X124773390Y-61121904D02*
X125344819Y-61693332D01*
X125344819Y-61693332D02*
X125344819Y-61074285D01*
X105638095Y-70254819D02*
X105638095Y-69254819D01*
X105638095Y-69731009D02*
X106209523Y-69731009D01*
X106209523Y-70254819D02*
X106209523Y-69254819D01*
X106590476Y-69254819D02*
X107209523Y-69254819D01*
X107209523Y-69254819D02*
X106876190Y-69635771D01*
X106876190Y-69635771D02*
X107019047Y-69635771D01*
X107019047Y-69635771D02*
X107114285Y-69683390D01*
X107114285Y-69683390D02*
X107161904Y-69731009D01*
X107161904Y-69731009D02*
X107209523Y-69826247D01*
X107209523Y-69826247D02*
X107209523Y-70064342D01*
X107209523Y-70064342D02*
X107161904Y-70159580D01*
X107161904Y-70159580D02*
X107114285Y-70207200D01*
X107114285Y-70207200D02*
X107019047Y-70254819D01*
X107019047Y-70254819D02*
X106733333Y-70254819D01*
X106733333Y-70254819D02*
X106638095Y-70207200D01*
X106638095Y-70207200D02*
X106590476Y-70159580D01*
X116449580Y-63906666D02*
X116497200Y-63954285D01*
X116497200Y-63954285D02*
X116544819Y-64097142D01*
X116544819Y-64097142D02*
X116544819Y-64192380D01*
X116544819Y-64192380D02*
X116497200Y-64335237D01*
X116497200Y-64335237D02*
X116401961Y-64430475D01*
X116401961Y-64430475D02*
X116306723Y-64478094D01*
X116306723Y-64478094D02*
X116116247Y-64525713D01*
X116116247Y-64525713D02*
X115973390Y-64525713D01*
X115973390Y-64525713D02*
X115782914Y-64478094D01*
X115782914Y-64478094D02*
X115687676Y-64430475D01*
X115687676Y-64430475D02*
X115592438Y-64335237D01*
X115592438Y-64335237D02*
X115544819Y-64192380D01*
X115544819Y-64192380D02*
X115544819Y-64097142D01*
X115544819Y-64097142D02*
X115592438Y-63954285D01*
X115592438Y-63954285D02*
X115640057Y-63906666D01*
X115878152Y-63049523D02*
X116544819Y-63049523D01*
X115497200Y-63287618D02*
X116211485Y-63525713D01*
X116211485Y-63525713D02*
X116211485Y-62906666D01*
X123408333Y-64224819D02*
X123075000Y-63748628D01*
X122836905Y-64224819D02*
X122836905Y-63224819D01*
X122836905Y-63224819D02*
X123217857Y-63224819D01*
X123217857Y-63224819D02*
X123313095Y-63272438D01*
X123313095Y-63272438D02*
X123360714Y-63320057D01*
X123360714Y-63320057D02*
X123408333Y-63415295D01*
X123408333Y-63415295D02*
X123408333Y-63558152D01*
X123408333Y-63558152D02*
X123360714Y-63653390D01*
X123360714Y-63653390D02*
X123313095Y-63701009D01*
X123313095Y-63701009D02*
X123217857Y-63748628D01*
X123217857Y-63748628D02*
X122836905Y-63748628D01*
X124265476Y-63558152D02*
X124265476Y-64224819D01*
X124027381Y-63177200D02*
X123789286Y-63891485D01*
X123789286Y-63891485D02*
X124408333Y-63891485D01*
X116284819Y-68191666D02*
X115808628Y-68524999D01*
X116284819Y-68763094D02*
X115284819Y-68763094D01*
X115284819Y-68763094D02*
X115284819Y-68382142D01*
X115284819Y-68382142D02*
X115332438Y-68286904D01*
X115332438Y-68286904D02*
X115380057Y-68239285D01*
X115380057Y-68239285D02*
X115475295Y-68191666D01*
X115475295Y-68191666D02*
X115618152Y-68191666D01*
X115618152Y-68191666D02*
X115713390Y-68239285D01*
X115713390Y-68239285D02*
X115761009Y-68286904D01*
X115761009Y-68286904D02*
X115808628Y-68382142D01*
X115808628Y-68382142D02*
X115808628Y-68763094D01*
X116284819Y-67239285D02*
X116284819Y-67810713D01*
X116284819Y-67524999D02*
X115284819Y-67524999D01*
X115284819Y-67524999D02*
X115427676Y-67620237D01*
X115427676Y-67620237D02*
X115522914Y-67715475D01*
X115522914Y-67715475D02*
X115570533Y-67810713D01*
X121341905Y-58204819D02*
X121341905Y-57204819D01*
X121341905Y-57204819D02*
X121580000Y-57204819D01*
X121580000Y-57204819D02*
X121722857Y-57252438D01*
X121722857Y-57252438D02*
X121818095Y-57347676D01*
X121818095Y-57347676D02*
X121865714Y-57442914D01*
X121865714Y-57442914D02*
X121913333Y-57633390D01*
X121913333Y-57633390D02*
X121913333Y-57776247D01*
X121913333Y-57776247D02*
X121865714Y-57966723D01*
X121865714Y-57966723D02*
X121818095Y-58061961D01*
X121818095Y-58061961D02*
X121722857Y-58157200D01*
X121722857Y-58157200D02*
X121580000Y-58204819D01*
X121580000Y-58204819D02*
X121341905Y-58204819D01*
X122865714Y-58204819D02*
X122294286Y-58204819D01*
X122580000Y-58204819D02*
X122580000Y-57204819D01*
X122580000Y-57204819D02*
X122484762Y-57347676D01*
X122484762Y-57347676D02*
X122389524Y-57442914D01*
X122389524Y-57442914D02*
X122294286Y-57490533D01*
X118438095Y-60904819D02*
X118438095Y-61714342D01*
X118438095Y-61714342D02*
X118485714Y-61809580D01*
X118485714Y-61809580D02*
X118533333Y-61857200D01*
X118533333Y-61857200D02*
X118628571Y-61904819D01*
X118628571Y-61904819D02*
X118819047Y-61904819D01*
X118819047Y-61904819D02*
X118914285Y-61857200D01*
X118914285Y-61857200D02*
X118961904Y-61809580D01*
X118961904Y-61809580D02*
X119009523Y-61714342D01*
X119009523Y-61714342D02*
X119009523Y-60904819D01*
X120009523Y-61904819D02*
X119438095Y-61904819D01*
X119723809Y-61904819D02*
X119723809Y-60904819D01*
X119723809Y-60904819D02*
X119628571Y-61047676D01*
X119628571Y-61047676D02*
X119533333Y-61142914D01*
X119533333Y-61142914D02*
X119438095Y-61190533D01*
X123433333Y-69849580D02*
X123385714Y-69897200D01*
X123385714Y-69897200D02*
X123242857Y-69944819D01*
X123242857Y-69944819D02*
X123147619Y-69944819D01*
X123147619Y-69944819D02*
X123004762Y-69897200D01*
X123004762Y-69897200D02*
X122909524Y-69801961D01*
X122909524Y-69801961D02*
X122861905Y-69706723D01*
X122861905Y-69706723D02*
X122814286Y-69516247D01*
X122814286Y-69516247D02*
X122814286Y-69373390D01*
X122814286Y-69373390D02*
X122861905Y-69182914D01*
X122861905Y-69182914D02*
X122909524Y-69087676D01*
X122909524Y-69087676D02*
X123004762Y-68992438D01*
X123004762Y-68992438D02*
X123147619Y-68944819D01*
X123147619Y-68944819D02*
X123242857Y-68944819D01*
X123242857Y-68944819D02*
X123385714Y-68992438D01*
X123385714Y-68992438D02*
X123433333Y-69040057D01*
X123766667Y-68944819D02*
X124385714Y-68944819D01*
X124385714Y-68944819D02*
X124052381Y-69325771D01*
X124052381Y-69325771D02*
X124195238Y-69325771D01*
X124195238Y-69325771D02*
X124290476Y-69373390D01*
X124290476Y-69373390D02*
X124338095Y-69421009D01*
X124338095Y-69421009D02*
X124385714Y-69516247D01*
X124385714Y-69516247D02*
X124385714Y-69754342D01*
X124385714Y-69754342D02*
X124338095Y-69849580D01*
X124338095Y-69849580D02*
X124290476Y-69897200D01*
X124290476Y-69897200D02*
X124195238Y-69944819D01*
X124195238Y-69944819D02*
X123909524Y-69944819D01*
X123909524Y-69944819D02*
X123814286Y-69897200D01*
X123814286Y-69897200D02*
X123766667Y-69849580D01*
X132838095Y-54254819D02*
X132838095Y-53254819D01*
X132838095Y-53731009D02*
X133409523Y-53731009D01*
X133409523Y-54254819D02*
X133409523Y-53254819D01*
X133838095Y-53350057D02*
X133885714Y-53302438D01*
X133885714Y-53302438D02*
X133980952Y-53254819D01*
X133980952Y-53254819D02*
X134219047Y-53254819D01*
X134219047Y-53254819D02*
X134314285Y-53302438D01*
X134314285Y-53302438D02*
X134361904Y-53350057D01*
X134361904Y-53350057D02*
X134409523Y-53445295D01*
X134409523Y-53445295D02*
X134409523Y-53540533D01*
X134409523Y-53540533D02*
X134361904Y-53683390D01*
X134361904Y-53683390D02*
X133790476Y-54254819D01*
X133790476Y-54254819D02*
X134409523Y-54254819D01*
X112166666Y-56254819D02*
X112166666Y-56969104D01*
X112166666Y-56969104D02*
X112119047Y-57111961D01*
X112119047Y-57111961D02*
X112023809Y-57207200D01*
X112023809Y-57207200D02*
X111880952Y-57254819D01*
X111880952Y-57254819D02*
X111785714Y-57254819D01*
X112642857Y-57254819D02*
X112642857Y-56254819D01*
X112642857Y-56254819D02*
X113023809Y-56254819D01*
X113023809Y-56254819D02*
X113119047Y-56302438D01*
X113119047Y-56302438D02*
X113166666Y-56350057D01*
X113166666Y-56350057D02*
X113214285Y-56445295D01*
X113214285Y-56445295D02*
X113214285Y-56588152D01*
X113214285Y-56588152D02*
X113166666Y-56683390D01*
X113166666Y-56683390D02*
X113119047Y-56731009D01*
X113119047Y-56731009D02*
X113023809Y-56778628D01*
X113023809Y-56778628D02*
X112642857Y-56778628D01*
X114166666Y-57254819D02*
X113595238Y-57254819D01*
X113880952Y-57254819D02*
X113880952Y-56254819D01*
X113880952Y-56254819D02*
X113785714Y-56397676D01*
X113785714Y-56397676D02*
X113690476Y-56492914D01*
X113690476Y-56492914D02*
X113595238Y-56540533D01*
X132974819Y-61143333D02*
X133689104Y-61143333D01*
X133689104Y-61143333D02*
X133831961Y-61190952D01*
X133831961Y-61190952D02*
X133927200Y-61286190D01*
X133927200Y-61286190D02*
X133974819Y-61429047D01*
X133974819Y-61429047D02*
X133974819Y-61524285D01*
X133974819Y-60143333D02*
X133974819Y-60714761D01*
X133974819Y-60429047D02*
X132974819Y-60429047D01*
X132974819Y-60429047D02*
X133117676Y-60524285D01*
X133117676Y-60524285D02*
X133212914Y-60619523D01*
X133212914Y-60619523D02*
X133260533Y-60714761D01*
D11*
%TO.C,U2*%
X113940000Y-53000000D02*
X113940000Y-51050000D01*
X113940000Y-53000000D02*
X113940000Y-54950000D01*
X124060000Y-53000000D02*
X124060000Y-51050000D01*
X124060000Y-53000000D02*
X124060000Y-54950000D01*
X124335000Y-50540000D02*
X124005000Y-50300000D01*
X124335000Y-50060000D01*
X124335000Y-50540000D01*
G36*
X124335000Y-50540000D02*
G01*
X124005000Y-50300000D01*
X124335000Y-50060000D01*
X124335000Y-50540000D01*
G37*
%TO.C,P2*%
X109870000Y-58050000D02*
X108240000Y-58050000D01*
X109870000Y-67250000D02*
X108240000Y-67250000D01*
%TO.C,R2*%
X116677500Y-67987742D02*
X116677500Y-68462258D01*
X117722500Y-67987742D02*
X117722500Y-68462258D01*
%TO.C,R3*%
X118962742Y-58477500D02*
X119437258Y-58477500D01*
X118962742Y-59522500D02*
X119437258Y-59522500D01*
D12*
%TO.C,D2*%
X124270000Y-59000000D02*
G75*
G02*
X124170000Y-59000000I-50000J0D01*
G01*
X124170000Y-59000000D02*
G75*
G02*
X124270000Y-59000000I50000J0D01*
G01*
D11*
%TO.C,R4*%
X123337742Y-64677500D02*
X123812258Y-64677500D01*
X123337742Y-65722500D02*
X123812258Y-65722500D01*
%TO.C,R1*%
X113877500Y-67787742D02*
X113877500Y-68262258D01*
X114922500Y-67787742D02*
X114922500Y-68262258D01*
D12*
%TO.C,D1*%
X121270000Y-58800000D02*
G75*
G02*
X121170000Y-58800000I-50000J0D01*
G01*
X121170000Y-58800000D02*
G75*
G02*
X121270000Y-58800000I50000J0D01*
G01*
D11*
%TO.C,U1*%
X119200000Y-62290000D02*
X118400000Y-62290000D01*
X119200000Y-62290000D02*
X120000000Y-62290000D01*
X119200000Y-65410000D02*
X118400000Y-65410000D01*
X119200000Y-65410000D02*
X120000000Y-65410000D01*
X117900000Y-62340000D02*
X117660000Y-62010000D01*
X118140000Y-62010000D01*
X117900000Y-62340000D01*
G36*
X117900000Y-62340000D02*
G01*
X117660000Y-62010000D01*
X118140000Y-62010000D01*
X117900000Y-62340000D01*
G37*
%TO.C,JP1*%
X112750000Y-57800000D02*
X116850000Y-57800000D01*
X112750000Y-59800000D02*
X112750000Y-57800000D01*
X116850000Y-57800000D02*
X116850000Y-59800000D01*
X116850000Y-59800000D02*
X112750000Y-59800000D01*
%TO.C,J1*%
X126410000Y-53080000D02*
X126410000Y-68540000D01*
X126410000Y-54460000D02*
X127410000Y-54460000D01*
X126410000Y-54710000D02*
X127410000Y-54710000D01*
X126410000Y-66910000D02*
X127410000Y-66910000D01*
X126410000Y-68540000D02*
X132430000Y-68540000D01*
X127410000Y-54460000D02*
X127410000Y-67160000D01*
X127410000Y-54460000D02*
X127940000Y-54710000D01*
X127410000Y-67160000D02*
X126410000Y-67160000D01*
X127940000Y-54710000D02*
X127940000Y-66910000D01*
X127940000Y-66910000D02*
X127410000Y-67160000D01*
X131400000Y-52790000D02*
X127400000Y-52790000D01*
X131830000Y-53660000D02*
X131830000Y-55260000D01*
X131830000Y-55260000D02*
X132430000Y-55260000D01*
X131830000Y-56200000D02*
X131830000Y-57800000D01*
X131830000Y-57800000D02*
X132430000Y-57800000D01*
X131830000Y-58740000D02*
X131830000Y-60340000D01*
X131830000Y-60340000D02*
X132430000Y-60340000D01*
X131830000Y-61280000D02*
X131830000Y-62880000D01*
X131830000Y-62880000D02*
X132430000Y-62880000D01*
X131830000Y-63820000D02*
X131830000Y-65420000D01*
X131830000Y-65420000D02*
X132430000Y-65420000D01*
X131830000Y-66360000D02*
X131830000Y-67960000D01*
X131830000Y-67960000D02*
X132430000Y-67960000D01*
X132430000Y-53080000D02*
X126410000Y-53080000D01*
X132430000Y-53660000D02*
X131830000Y-53660000D01*
X132430000Y-56200000D02*
X131830000Y-56200000D01*
X132430000Y-58740000D02*
X131830000Y-58740000D01*
X132430000Y-61280000D02*
X131830000Y-61280000D01*
X132430000Y-63820000D02*
X131830000Y-63820000D01*
X132430000Y-66360000D02*
X131830000Y-66360000D01*
X132430000Y-68540000D02*
X132430000Y-53080000D01*
%TD*%
D13*
X103800000Y-47400000D02*
X135600000Y-47400000D01*
X135600000Y-75800000D01*
X103800000Y-75800000D01*
X103800000Y-47400000D01*
M02*
