%TF.GenerationSoftware,KiCad,Pcbnew,8.0.8*%
%TF.CreationDate,2025-06-30T12:02:42+05:30*%
%TF.ProjectId,Serial Basic CH340C,53657269-616c-4204-9261-736963204348,rev?*%
%TF.SameCoordinates,Original*%
%TF.FileFunction,Paste,Top*%
%TF.FilePolarity,Positive*%
%FSLAX46Y46*%
G04 Gerber Fmt 4.6, Leading zero omitted, Abs format (unit mm)*
G04 Created by KiCad (PCBNEW 8.0.8) date 2025-06-30 12:02:42*
%MOMM*%
%LPD*%
G01*
G04 APERTURE LIST*
G04 Aperture macros list*
%AMRoundRect*
0 Rectangle with rounded corners*
0 $1 Rounding radius*
0 $2 $3 $4 $5 $6 $7 $8 $9 X,Y pos of 4 corners*
0 Add a 4 corners polygon primitive as box body*
4,1,4,$2,$3,$4,$5,$6,$7,$8,$9,$2,$3,0*
0 Add four circle primitives for the rounded corners*
1,1,$1+$1,$2,$3*
1,1,$1+$1,$4,$5*
1,1,$1+$1,$6,$7*
1,1,$1+$1,$8,$9*
0 Add four rect primitives between the rounded corners*
20,1,$1+$1,$2,$3,$4,$5,0*
20,1,$1+$1,$4,$5,$6,$7,0*
20,1,$1+$1,$6,$7,$8,$9,0*
20,1,$1+$1,$8,$9,$2,$3,0*%
G04 Aperture macros list end*
%ADD10RoundRect,0.150000X-0.150000X0.825000X-0.150000X-0.825000X0.150000X-0.825000X0.150000X0.825000X0*%
%ADD11RoundRect,0.165000X0.165000X0.475000X-0.165000X0.475000X-0.165000X-0.475000X0.165000X-0.475000X0*%
%ADD12RoundRect,0.190000X0.410000X-0.190000X0.410000X0.190000X-0.410000X0.190000X-0.410000X-0.190000X0*%
%ADD13RoundRect,0.200000X-0.400000X0.200000X-0.400000X-0.200000X0.400000X-0.200000X0.400000X0.200000X0*%
%ADD14RoundRect,0.175000X0.425000X-0.175000X0.425000X0.175000X-0.425000X0.175000X-0.425000X-0.175000X0*%
%ADD15RoundRect,0.190000X-0.410000X0.190000X-0.410000X-0.190000X0.410000X-0.190000X0.410000X0.190000X0*%
%ADD16RoundRect,0.175000X-0.425000X0.175000X-0.425000X-0.175000X0.425000X-0.175000X0.425000X0.175000X0*%
%ADD17RoundRect,0.250000X-0.425000X0.650000X-0.425000X-0.650000X0.425000X-0.650000X0.425000X0.650000X0*%
%ADD18RoundRect,0.250000X-0.500000X0.650000X-0.500000X-0.650000X0.500000X-0.650000X0.500000X0.650000X0*%
%ADD19RoundRect,0.200000X-0.275000X0.200000X-0.275000X-0.200000X0.275000X-0.200000X0.275000X0.200000X0*%
%ADD20RoundRect,0.200000X-0.200000X-0.275000X0.200000X-0.275000X0.200000X0.275000X-0.200000X0.275000X0*%
%ADD21RoundRect,0.079500X-0.079500X-0.100500X0.079500X-0.100500X0.079500X0.100500X-0.079500X0.100500X0*%
%ADD22RoundRect,0.165000X-0.475000X0.165000X-0.475000X-0.165000X0.475000X-0.165000X0.475000X0.165000X0*%
%ADD23RoundRect,0.150000X-0.512500X-0.150000X0.512500X-0.150000X0.512500X0.150000X-0.512500X0.150000X0*%
%TA.AperFunction,Profile*%
%ADD24C,0.050000*%
%TD*%
G04 APERTURE END LIST*
D10*
%TO.C,U2*%
X123445000Y-50525000D03*
X122175000Y-50525000D03*
X120905000Y-50525000D03*
X119635000Y-50525000D03*
X118365000Y-50525000D03*
X117095000Y-50525000D03*
X115825000Y-50525000D03*
X114555000Y-50525000D03*
X114555000Y-55475000D03*
X115825000Y-55475000D03*
X117095000Y-55475000D03*
X118365000Y-55475000D03*
X119635000Y-55475000D03*
X120905000Y-55475000D03*
X122175000Y-55475000D03*
X123445000Y-55475000D03*
%TD*%
D11*
%TO.C,C1*%
X121340000Y-68000000D03*
X120260000Y-68000000D03*
%TD*%
D12*
%TO.C,P2*%
X110820000Y-65610000D03*
D13*
X110800000Y-60330000D03*
D14*
X110800000Y-63580000D03*
D15*
X110800000Y-61560000D03*
D16*
X110800000Y-62580000D03*
D12*
X110800000Y-64600000D03*
D17*
X110807500Y-57525000D03*
D18*
X107227500Y-57525000D03*
D17*
X110807500Y-67775000D03*
D18*
X107227500Y-67775000D03*
%TD*%
D19*
%TO.C,R2*%
X117200000Y-67400000D03*
X117200000Y-69050000D03*
%TD*%
D20*
%TO.C,R3*%
X118375000Y-59000000D03*
X120025000Y-59000000D03*
%TD*%
D21*
%TO.C,D2*%
X124735000Y-59000000D03*
X125425000Y-59000000D03*
%TD*%
D22*
%TO.C,C2*%
X123400000Y-61320000D03*
X123400000Y-62400000D03*
%TD*%
%TO.C,C4*%
X114600000Y-63200000D03*
X114600000Y-64280000D03*
%TD*%
D20*
%TO.C,R4*%
X122750000Y-65200000D03*
X124400000Y-65200000D03*
%TD*%
D19*
%TO.C,R1*%
X114400000Y-67200000D03*
X114400000Y-68850000D03*
%TD*%
D21*
%TO.C,D1*%
X121735000Y-58800000D03*
X122425000Y-58800000D03*
%TD*%
D23*
%TO.C,U1*%
X118062500Y-62900000D03*
X118062500Y-63850000D03*
X118062500Y-64800000D03*
X120337500Y-64800000D03*
X120337500Y-62900000D03*
%TD*%
D11*
%TO.C,C3*%
X124140000Y-68000000D03*
X123060000Y-68000000D03*
%TD*%
D24*
X103800000Y-47400000D02*
X135600000Y-47400000D01*
X135600000Y-75800000D01*
X103800000Y-75800000D01*
X103800000Y-47400000D01*
M02*
